<svg width="50%" height="40" xmlns="http://www.w3.org/2000/svg" xmlns:xlink="http://www.w3.org/1999/xlink" viewBox="0 0 541.52 100"><defs><style>.cls-1{fill:#2264b0;}.cls-2{fill:#0a2144;}.cls-3{fill:url(#Degradado_sin_nombre_2);}.cls-4{fill:url(#Degradado_sin_nombre_2-2);}.cls-5{fill:url(#Degradado_sin_nombre_2-3);}.cls-6{fill:url(#Degradado_sin_nombre_21);}.cls-7{fill:url(#Degradado_sin_nombre_21-2);}.cls-8{fill:url(#Degradado_sin_nombre_21-3);}.cls-9{fill:url(#Degradado_sin_nombre_2-4);}.cls-10{fill:url(#Degradado_sin_nombre_2-5);}.cls-11{fill:url(#Degradado_sin_nombre_2-6);}.cls-12{fill:url(#Degradado_sin_nombre_28);}.cls-13{fill:url(#Degradado_sin_nombre_27);}.cls-14{fill:url(#Degradado_sin_nombre_28-2);}</style><linearGradient id="Degradado_sin_nombre_2" x1="84.23" y1="25.11" x2="59.35" y2="25.11" gradientUnits="userSpaceOnUse"><stop offset="0.22" stop-color="#2264b0"/><stop offset="0.31" stop-color="#2160aa"/><stop offset="0.43" stop-color="#1d5699"/><stop offset="0.57" stop-color="#17447d"/><stop offset="0.72" stop-color="#0e2c56"/><stop offset="0.78" stop-color="#0a2144"/></linearGradient><linearGradient id="Degradado_sin_nombre_2-2" x1="78.55" y1="32.74" x2="61.26" y2="32.74" xlink:href="#Degradado_sin_nombre_2"/><linearGradient id="Degradado_sin_nombre_2-3" x1="72.87" y1="41.47" x2="57.15" y2="41.47" xlink:href="#Degradado_sin_nombre_2"/><linearGradient id="Degradado_sin_nombre_21" x1="84.22" y1="74.89" x2="59.35" y2="74.89" gradientUnits="userSpaceOnUse"><stop offset="0.22" stop-color="#2064af"/><stop offset="0.31" stop-color="#1f60a9"/><stop offset="0.43" stop-color="#1b5698"/><stop offset="0.57" stop-color="#15447c"/><stop offset="0.72" stop-color="#0e2c55"/><stop offset="0.78" stop-color="#0a2144"/></linearGradient><linearGradient id="Degradado_sin_nombre_21-2" x1="78.54" y1="67.27" x2="61.26" y2="67.27" xlink:href="#Degradado_sin_nombre_21"/><linearGradient id="Degradado_sin_nombre_21-3" x1="72.86" y1="58.72" x2="57.38" y2="58.72" xlink:href="#Degradado_sin_nombre_21"/><linearGradient id="Degradado_sin_nombre_2-4" x1="62.81" y1="21.67" x2="48.48" y2="46.49" xlink:href="#Degradado_sin_nombre_2"/><linearGradient id="Degradado_sin_nombre_2-5" x1="53.3" y1="23.97" x2="43.3" y2="41.29" xlink:href="#Degradado_sin_nombre_2"/><linearGradient id="Degradado_sin_nombre_2-6" x1="43.37" y1="26.03" x2="34.77" y2="40.94" xlink:href="#Degradado_sin_nombre_2"/><linearGradient id="Degradado_sin_nombre_28" x1="15.61" y1="83.53" x2="-1.1" y2="54.59" xlink:href="#Degradado_sin_nombre_21"/><linearGradient id="Degradado_sin_nombre_27" x1="20.43" y1="79.19" x2="8.56" y2="58.63" gradientUnits="userSpaceOnUse"><stop offset="0.22" stop-color="#2064af"/><stop offset="0.31" stop-color="#1f60a9"/><stop offset="0.43" stop-color="#1b5698"/><stop offset="0.57" stop-color="#15447c"/><stop offset="0.72" stop-color="#0e2c55"/><stop offset="0.78" stop-color="#0a2144"/></linearGradient><linearGradient id="Degradado_sin_nombre_28-2" x1="27.68" y1="73.44" x2="20.21" y2="60.51" xlink:href="#Degradado_sin_nombre_21"/></defs><g id="Layer_2" data-name="Layer 2"><g id="Layer_1-2" data-name="Layer 1"><path class="cls-1" d="M84.23,26.82A30.57,30.57,0,0,0,64.12,19.3a31.32,31.32,0,0,0-4.77.37A30.76,30.76,0,0,0,30.7,0h-.23A30.69,30.69,0,0,0,6.84,50,30.7,30.7,0,0,0,30.7,100h0A30.74,30.74,0,0,0,59.35,80.33a31.32,31.32,0,0,0,4.77.37A30.69,30.69,0,0,0,84.23,26.82Zm-27,19.38,0,.07h0A.56.56,0,0,0,57.19,46.2ZM5.43,30.7a25.29,25.29,0,0,1,25-25.27h.23A25.32,25.32,0,0,1,54,21l.24.62a25,25,0,0,1,1.66,7.94q0,.57,0,1.14a25.13,25.13,0,0,1-5.22,15.37c-.71-.62-1.45-1.2-2.22-1.75l-.35-.25a22,22,0,0,0,4.53-12.89V30.7a21.56,21.56,0,0,0-.22-3.13,21.91,21.91,0,0,0-1.25-4.79c-.07-.18-.14-.36-.22-.54A22.05,22.05,0,0,0,30.7,8.68h-.23A22,22,0,0,0,17.11,48a22,22,0,0,0,13.58,4.7h0a16.69,16.69,0,0,1,2.85.25,16.42,16.42,0,0,1,5,1.75l.79.46a16.53,16.53,0,0,1,4,3.48A15.13,15.13,0,0,1,45,60.87c.05.09.1.18.16.27a16.43,16.43,0,0,1,2.14,7.69c0,.16,0,.31,0,.47a16.47,16.47,0,0,1-1,5.68h0A16.63,16.63,0,0,1,30.71,85.89h0A16.58,16.58,0,0,1,18,58.65a30.35,30.35,0,0,0,3.25,1.26A13.33,13.33,0,0,0,30.7,82.63h0A13.31,13.31,0,0,0,44,69.3a13.15,13.15,0,0,0-1.72-6.54q-.08-.15-.15-.27a13.64,13.64,0,0,0-2-2.58,13.25,13.25,0,0,0-6.06-3.5A13,13,0,0,0,30.71,56h0a25.22,25.22,0,0,1-13.58-4,25.92,25.92,0,0,1-6.46-5.93A25.16,25.16,0,0,1,5.43,30.7ZM22.8,69.3a7.91,7.91,0,0,1,7.89-7.9h0a7.9,7.9,0,0,1,6.74,3.79c.06.11.12.22.19.33h0a7.78,7.78,0,0,1,1,3.78,7.9,7.9,0,0,1-7.9,7.9h0a7.92,7.92,0,0,1-7.9-7.9ZM56,70.44a26,26,0,0,1-.37,3.34A25.3,25.3,0,0,1,30.71,94.57h0a25.25,25.25,0,0,1-20-40.64,29.44,29.44,0,0,0,2.57,2A22,22,0,0,0,30.7,91.32h0A22.05,22.05,0,0,0,51,77.76a22.37,22.37,0,0,0,1.69-8.46c0-.16,0-.32,0-.48a21.85,21.85,0,0,0-2.86-10.38c-.06-.09-.11-.18-.16-.27a23.09,23.09,0,0,0-1.51-2.24A22.61,22.61,0,0,0,44.3,52a23.62,23.62,0,0,0-2.19-1.51c-.27-.17-.55-.33-.83-.48a21.07,21.07,0,0,0-2.4-1.14,22,22,0,0,0-8.17-1.57h0a16.48,16.48,0,0,1-7.87-2,16.59,16.59,0,0,1,7.65-31.18h.23A16.6,16.6,0,0,1,46.17,24.73l.12.3a16.65,16.65,0,0,1,1,5.67c0,.16,0,.32,0,.48A16.5,16.5,0,0,1,43.4,41.35q-1.27-.59-2.61-1.05l-.64-.21a13.32,13.32,0,0,0,3.42-12.87,12.93,12.93,0,0,0-.44-1.33A13.34,13.34,0,0,0,30.7,17.37h-.23A13.33,13.33,0,0,0,30.69,44h0a24.87,24.87,0,0,1,3.25.21,24.42,24.42,0,0,1,4.62,1l.67.23a24.14,24.14,0,0,1,3.08,1.35c.67.35,1.33.73,2,1.13A26.67,26.67,0,0,1,47,50l.54.47a25.66,25.66,0,0,1,3.21,3.46,24.46,24.46,0,0,1,1.76,2.62l.16.27a24.9,24.9,0,0,1,2.77,7.31A25.19,25.19,0,0,1,56,69.3Q56,69.87,56,70.44ZM30.71,38.6l.72,0-.72,0h0a7.9,7.9,0,0,1-.22-15.8h.23a7.9,7.9,0,0,1,0,15.8ZM57.38,54.12a4,4,0,0,1-.2-.35,7.85,7.85,0,1,1,.2.35Zm6.74,9.21a13.33,13.33,0,0,0,0-26.66,13.07,13.07,0,0,0-3.39.44,30.2,30.2,0,0,0,.53-3.45,16.9,16.9,0,0,1,2.86-.25,16.59,16.59,0,0,1,0,33.18,16.9,16.9,0,0,1-2.86-.25,30.2,30.2,0,0,0-.53-3.45A13.07,13.07,0,0,0,64.12,63.33Zm16.55,5.75a25.25,25.25,0,0,1-19.81,6,31,31,0,0,0,.44-3.23,22,22,0,1,0,0-43.66,31,31,0,0,0-.44-3.23A25.26,25.26,0,0,1,80.67,69.08Z"/><path class="cls-2" d="M54.56,50a31.69,31.69,0,0,1,2.62,3.77,7.88,7.88,0,0,1,0-7.5h0A31.82,31.82,0,0,1,54.56,50Z"/><path class="cls-3" d="M64.12,19.3a31.32,31.32,0,0,0-4.77.37,31,31,0,0,1,1.51,5.27,25.24,25.24,0,0,1,19.82,6l3.55-4.11A30.57,30.57,0,0,0,64.12,19.3Z"/><path class="cls-4" d="M64.12,28a21.78,21.78,0,0,0-2.82.18c.06.83.1,1.68.1,2.53,0,1,0,2-.14,3a16.9,16.9,0,0,1,2.86-.25A16.5,16.5,0,0,1,75,37.49l3.55-4.1A21.88,21.88,0,0,0,64.12,28Z"/><path class="cls-5" d="M64.12,36.67a13.07,13.07,0,0,0-3.39.44,30.46,30.46,0,0,1-3.58,9.16h0a7.89,7.89,0,0,1,12.16-2.21L72.87,40A13.27,13.27,0,0,0,64.12,36.67Z"/><path class="cls-6" d="M64.12,75.27a25.14,25.14,0,0,1-3.26-.21,30.07,30.07,0,0,1-1.51,5.27,31.32,31.32,0,0,0,4.77.37,30.61,30.61,0,0,0,20.1-7.51l-3.55-4.11A25.11,25.11,0,0,1,64.12,75.27Z"/><path class="cls-7" d="M64.12,66.59a16.9,16.9,0,0,1-2.86-.25,28.91,28.91,0,0,1,.14,3c0,.85,0,1.7-.1,2.53a22,22,0,0,0,17.24-5.21L75,62.52A16.52,16.52,0,0,1,64.12,66.59Z"/><path class="cls-8" d="M64.12,57.9a7.89,7.89,0,0,1-6.74-3.78,30.7,30.7,0,0,1,3.35,8.77,13.07,13.07,0,0,0,3.39.44,13.27,13.27,0,0,0,8.74-3.28L69.31,56A7.82,7.82,0,0,1,64.12,57.9Z"/><path class="cls-9" d="M61.3,28.17a30.46,30.46,0,0,0-1.95-8.5l-5.07,1.95a25,25,0,0,1,1.66,7.94q0,.57,0,1.14a25.13,25.13,0,0,1-5.22,15.37l.5.44A31.2,31.2,0,0,1,54.56,50a30.66,30.66,0,0,0,6.17-12.89,32.59,32.59,0,0,0,.53-3.45c.09-1,.14-2,.14-3C61.4,29.85,61.36,29,61.3,28.17Z"/><path class="cls-10" d="M52.71,30.7a21.56,21.56,0,0,0-.22-3.13,21.91,21.91,0,0,0-1.25-4.79l-5.07,1.95.12.3a16.65,16.65,0,0,1,1,5.67c0,.16,0,.32,0,.48A16.5,16.5,0,0,1,43.4,41.35l.4.19a30.2,30.2,0,0,1,4.38,2.53,22,22,0,0,0,4.53-12.89Z"/><path class="cls-11" d="M43.57,27.22h0a12.93,12.93,0,0,0-.44-1.33l-5.06,1.95A7.91,7.91,0,0,1,30.71,38.6h0a31.09,31.09,0,0,1,4.76.37,30.12,30.12,0,0,1,4.68,1.12,13.32,13.32,0,0,0,3.42-12.87Z"/><path class="cls-12" d="M10.66,53.93A30.85,30.85,0,0,1,6.84,50a30.65,30.65,0,0,0,0,38.6l4.22-3.42a25.21,25.21,0,0,1-.4-31.25Z"/><path class="cls-13" d="M18,58.65a31.11,31.11,0,0,1-4.77-2.72,22,22,0,0,0,.36,27.21l4.22-3.42A16.56,16.56,0,0,1,18,58.65Z"/><path class="cls-14" d="M30.69,61.4a30.43,30.43,0,0,1-9.44-1.49,13.3,13.3,0,0,0-.91,17.77l4.22-3.42a7.83,7.83,0,0,1-1.76-5A7.91,7.91,0,0,1,30.69,61.4Z"/><path class="cls-1" d="M153,16.6c0,3.68-2,5.45-4.74,5.45a5.47,5.47,0,0,1-3.14-1l-.26-.17a3.32,3.32,0,0,0-2.08-.8c-.93,0-1.51.53-1.55,1.9h-3.63v-.93c0-3.58,2.13-5.35,4.82-5.35a6.66,6.66,0,0,1,3.19,1l.26.18a4.52,4.52,0,0,0,2.13.84c.93,0,1.46-.62,1.46-1.9H153Z"/><path class="cls-1" d="M145.31,26.52a9.56,9.56,0,0,0-4.92,1.36v-1h-4.73V47.2h4.73v-11a4.92,4.92,0,1,1,9.84,0v11H155v-11a9.66,9.66,0,0,0-9.65-9.65"/><path class="cls-1" d="M167.66,43.05h-.11a6.19,6.19,0,0,1,0-12.38h.11a6.19,6.19,0,0,1,0,12.38m-.06-16.69c-5.93,0-10.85,4.27-10.86,10.5s4.93,10.5,10.86,10.5,10.86-4.27,10.86-10.5-4.92-10.5-10.86-10.5"/><path class="cls-1" d="M187.87,47.36a14.09,14.09,0,0,1-8.56-3l-.19-.15,2.31-3.51.22.17a11,11,0,0,0,6.42,2.38c1.76,0,2.91-.7,2.91-1.87V41.3c0-1.24-1.85-1.77-3.87-2.38l-.58-.14c-3.08-.87-6.48-2.13-6.48-6.06v-.07c0-3.71,3.07-6.29,7.37-6.29a14.06,14.06,0,0,1,7.44,2.29l.22.13-2,3.68-.24-.15a11.77,11.77,0,0,0-5.59-1.83c-1.54,0-2.66.66-2.66,1.72v.07c0,1.15,2,1.73,4,2.4l.48.12c3.28,1,6.41,2.46,6.41,6v.07c0,4-2.92,6.48-7.61,6.48"/><path class="cls-1" d="M117.27,38l4.09-11.82L125.46,38Zm11.39,9.21h5.51l-10-29h-5.51l-10,29h5.51l1.69-4.86H127Z"/><path class="cls-1" d="M233.25,79.8h-.11a6.19,6.19,0,0,1,0-12.38h.11a6.19,6.19,0,0,1,0,12.38m-.06-16.69c-5.93,0-10.85,4.27-10.86,10.5s4.93,10.5,10.86,10.5,10.86-4.27,10.86-10.5-4.92-10.5-10.86-10.5"/><path class="cls-1" d="M125.75,73.51a6.07,6.07,0,0,1-6.17,6.25h-.11a6.25,6.25,0,0,1,0-12.5h.11a6.08,6.08,0,0,1,6.17,6.25m4.73,0V55.61h-4.73V64.7a11.39,11.39,0,0,0-6.23-1.79c-6,0-11,4.31-11,10.6s5,10.6,11,10.6,11-4.35,11-10.6"/><path class="cls-1" d="M137,71.41c0-1.88,2.45-4.45,5.71-4.45,2.15,0,5,1.63,5,4.45Zm5.42-8.5c-5.55,0-10.15,4.32-10.16,10.6s4.61,10.6,10.16,10.6c3.34,0,6.86-1,8.71-3.65l-2.77-2.78A6.92,6.92,0,0,1,143,80c-3.64,0-6.08-2.14-6.08-5.19h15.59c0-.41.06-.82.06-1.25,0-6.28-3.95-10.6-10.15-10.6"/><path class="cls-1" d="M276.57,79.93h-.11a6.25,6.25,0,0,1,0-12.5h.11a6.25,6.25,0,0,1,0,12.5m-.05-16.85c-6,0-11,4.31-11,10.6s5,10.6,11,10.6a11.44,11.44,0,0,0,6.23-1.79V84h4.72V73.68c0-6.25-5-10.6-11-10.6"/><path class="cls-1" d="M257.13,62.84a9.25,9.25,0,0,0-1.3-.09,7.08,7.08,0,0,0-5.05,1.71V63.09h-4.84V84h4.84V72.18a5.05,5.05,0,0,1,5.05-5,4.64,4.64,0,0,1,1.3.18Z"/><path class="cls-1" d="M173,63.22A9.6,9.6,0,0,0,168,64.58v-9h-4.74V84H168V72.89a4.93,4.93,0,0,1,9.86,0V84h4.74V72.89A9.68,9.68,0,0,0,173,63.22"/><polygon class="cls-1" points="217.31 63.4 217.31 55.62 212.46 55.62 212.46 63.4 208.43 63.4 208.43 67.43 212.46 67.43 212.46 83.95 217.31 83.95 217.31 67.43 221.34 67.43 221.34 63.4 217.31 63.4"/><rect class="cls-1" x="184.41" y="63.37" width="4.85" height="20.55"/><path class="cls-1" d="M186.83,60.76A2.75,2.75,0,1,0,184.08,58a2.75,2.75,0,0,0,2.75,2.75"/><rect class="cls-1" x="258.92" y="63.4" width="4.85" height="20.55"/><path class="cls-1" d="M261.35,60.79A2.75,2.75,0,1,0,258.6,58a2.75,2.75,0,0,0,2.75,2.75"/><path class="cls-1" d="M199.68,84.11a14.16,14.16,0,0,1-8.56-3l-.19-.15,2.31-3.51.22.17A11.1,11.1,0,0,0,199.88,80c1.76,0,2.91-.7,2.91-1.87v-.07c0-1.24-1.85-1.77-3.87-2.38l-.58-.14c-3.08-.87-6.48-2.13-6.48-6.06V69.4c0-3.71,3.07-6.29,7.37-6.29a14.09,14.09,0,0,1,7.44,2.29l.22.13-2,3.68-.23-.15A11.77,11.77,0,0,0,199,67.23c-1.55,0-2.66.66-2.66,1.72V69c0,1.15,1.95,1.73,4,2.4l.48.12c3.28,1,6.41,2.46,6.41,6v.07c0,4-2.92,6.48-7.61,6.48"/><path class="cls-1" d="M297.9,84.11a14.14,14.14,0,0,1-8.56-3l-.2-.15,2.31-3.51.23.17A11.1,11.1,0,0,0,298.1,80c1.76,0,2.91-.7,2.91-1.87v-.07c0-1.24-1.85-1.77-3.87-2.38l-.58-.14c-3.08-.87-6.48-2.13-6.48-6.06V69.4c0-3.71,3.06-6.29,7.36-6.29a14.06,14.06,0,0,1,7.44,2.29l.22.13-2,3.68-.23-.15a11.81,11.81,0,0,0-5.59-1.83c-1.55,0-2.66.66-2.66,1.72V69c0,1.15,1.95,1.73,4,2.4l.49.12c3.28,1,6.41,2.46,6.41,6v.07c0,4-2.93,6.48-7.61,6.48"/><path class="cls-1" d="M366.11,66.09a2,2,0,1,1-2.05-2A2.05,2.05,0,0,1,366.11,66.09Z"/><path class="cls-1" d="M371.9,69.4a2,2,0,1,1-2-2A2.05,2.05,0,0,1,371.9,69.4Z"/><path class="cls-1" d="M371.9,62.77a2,2,0,1,1-2-2.05A2.06,2.06,0,0,1,371.9,62.77Z"/><path class="cls-1" d="M404.45,44.39H355.54A1.64,1.64,0,0,0,353.91,46V82.39A1.63,1.63,0,0,0,355.54,84h48.91a1.63,1.63,0,0,0,1.63-1.62V46A1.64,1.64,0,0,0,404.45,44.39Zm-3.94,23.7h-2.12V73.6h-2.14V70.84h-2.06V73.6h-2.12V68.09H374.25a4.42,4.42,0,0,1,.2,1.31,4.59,4.59,0,0,1-9.05,1.08,4.59,4.59,0,1,1,0-8.79,4.59,4.59,0,0,1,9.05,1.08,4.44,4.44,0,0,1-.2,1.32h26.26Z"/><path class="cls-1" d="M456,58a9.23,9.23,0,1,0,0,18.44c5.21,0,9.53-3.75,9.54-9.22S461.22,58,456,58Zm.05,14.65H456a5.44,5.44,0,0,1,0-10.87h.09a5.44,5.44,0,0,1,0,10.87Z"/><path class="cls-1" d="M442.45,69.44a8.58,8.58,0,1,1-.05-11l3-2.62a12.81,12.81,0,0,0-9.66-4.36,12.54,12.54,0,1,0,0,25.07,12.82,12.82,0,0,0,9.71-4.42Z"/><path class="cls-1" d="M497.27,58a9.21,9.21,0,0,0-9.55,9.24V84h4.11V74.92a10,10,0,0,0,5.44,1.56c5.21,0,9.54-3.76,9.54-9.23S502.48,58,497.27,58Zm0,14.68h-.09a5.45,5.45,0,0,1,0-10.89h.09a5.45,5.45,0,0,1,0,10.89Z"/><path class="cls-1" d="M476.63,58a9.21,9.21,0,0,0-9.54,9.24V84h4.11V74.92a10,10,0,0,0,5.43,1.56c5.22,0,9.54-3.76,9.55-9.23A9.2,9.2,0,0,0,476.63,58Zm.05,14.68h-.1a5.45,5.45,0,0,1,0-10.89h.1a5.45,5.45,0,0,1,0,10.89Z"/><path class="cls-1" d="M516.68,58a8.85,8.85,0,0,0-8.84,9.24,8.84,8.84,0,0,0,8.84,9.23c2.91,0,6-.91,7.6-3.18l-2.42-2.42a6,6,0,0,1-4.67,2c-3.17,0-5.3-1.86-5.3-4.52h13.58a9.51,9.51,0,0,0,.06-1.08C525.52,61.77,522.09,58,516.68,58ZM512,65.41c0-1.63,2.13-3.87,5-3.87,1.87,0,4.36,1.42,4.36,3.87Z"/><path class="cls-1" d="M531.18,67.25V51.69h-4.11V67.25h0a9.18,9.18,0,0,0,9.38,9.23v-3.8A5.29,5.29,0,0,1,531.18,67.25Z"/><path class="cls-1" d="M541.52,74.62a1.9,1.9,0,0,1-1.94,1.91,1.91,1.91,0,1,1,1.94-1.91Zm-3.4,0a1.46,1.46,0,0,0,1.47,1.51,1.45,1.45,0,0,0,1.44-1.5,1.46,1.46,0,1,0-2.91,0Zm1.16,1h-.44V73.72a3.43,3.43,0,0,1,.73-.06,1.19,1.19,0,0,1,.66.14.53.53,0,0,1,.18.41.48.48,0,0,1-.39.44v0a.55.55,0,0,1,.34.46,1.77,1.77,0,0,0,.14.48H540a1.59,1.59,0,0,1-.15-.47c0-.2-.15-.3-.39-.3h-.21Zm0-1.08h.21c.24,0,.44-.08.44-.27s-.13-.29-.41-.29l-.24,0Z"/></g></g>
</svg>